<svg xmlns="http://www.w3.org/2000/svg" viewBox="0 0 64 64">
  <rect width="64" height="64" rx="16" fill="#00b1ea"/>
  <ellipse cx="32" cy="26" rx="20" ry="13" fill="#fff"/>
  <path d="M20 27c3-4 6-6 10-6 4 0 6 2 8 4 2-2 4-4 8-4 4 0 7 2 10 6-3 3-7 5-10 5-4 0-6-2-8-4-2 2-4 4-8 4-3 0-7-2-10-5z" fill="#9fd9f7"/>
  <path d="M24 27c2 0 3-2 5-2s3 2 5 2 3-2 5-2 3 2 5 2" fill="none" stroke="#2b6fcf" stroke-width="2.2" stroke-linecap="round"/>
  <text x="14" y="50" fill="#fff" font-family="Arial, Helvetica, sans-serif" font-size="8.8" font-weight="700">mercado pago</text>
</svg>
